<svg width="80" height="80" viewBox="0 0 80 80" fill="none" xmlns="http://www.w3.org/2000/svg">
<path d="M32.7175 39.9999C32.7175 35.9788 35.9783 32.7182 40.0018 32.7182C44.0253 32.7182 47.2878 35.9788 47.2878 39.9999C47.2878 44.0209 44.0253 47.2815 40.0018 47.2815C35.9783 47.2815 32.7175 44.0209 32.7175 39.9999ZM28.7788 39.9999C28.7788 46.1946 33.8033 51.2161 40.0018 51.2161C46.2002 51.2161 51.2247 46.1946 51.2247 39.9999C51.2247 33.8052 46.2002 28.7837 40.0018 28.7837C33.8033 28.7837 28.7788 33.8052 28.7788 39.9999ZM49.0463 28.3389C49.0461 28.8574 49.1997 29.3642 49.4877 29.7954C49.7757 30.2265 50.1852 30.5627 50.6644 30.7612C51.1435 30.9598 51.6709 31.0119 52.1797 30.911C52.6885 30.8101 53.1559 30.5606 53.5228 30.1942C53.8898 29.8278 54.1398 29.3608 54.2412 28.8524C54.3426 28.344 54.2908 27.8169 54.0925 27.3379C53.8942 26.8588 53.5582 26.4493 53.127 26.1611C52.6958 25.873 52.1888 25.719 51.6701 25.7188H51.669C50.9737 25.7191 50.3069 25.9953 49.8152 26.4865C49.3234 26.9778 49.0469 27.644 49.0463 28.3389ZM31.1718 57.7797C29.0409 57.6827 27.8827 57.328 27.1131 57.0283C26.0926 56.6313 25.3645 56.1584 24.5991 55.3944C23.8336 54.6304 23.3597 53.9035 22.9642 52.8837C22.6642 52.1148 22.3092 50.9569 22.2123 48.8273C22.1064 46.5249 22.0852 45.8332 22.0852 40C22.0852 34.1669 22.1081 33.4772 22.2123 31.1728C22.3094 29.0432 22.667 27.8876 22.9642 27.1164C23.3615 26.0966 23.8346 25.369 24.5991 24.6039C25.3635 23.8389 26.0909 23.3653 27.1131 22.9701C27.8824 22.6702 29.0409 22.3155 31.1718 22.2187C33.4757 22.1128 34.1677 22.0916 40.0018 22.0916C45.8358 22.0916 46.5286 22.1145 48.8343 22.2187C50.9652 22.3156 52.1215 22.673 52.8931 22.9701C53.9136 23.3653 54.6416 23.84 55.4071 24.6039C56.1726 25.3679 56.6447 26.0966 57.042 27.1164C57.342 27.8853 57.697 29.0432 57.7938 31.1728C57.8998 33.4772 57.921 34.1669 57.921 40C57.921 45.8332 57.8998 46.5229 57.7938 48.8273C57.6968 50.9569 57.3401 52.1144 57.042 52.8837C56.6447 53.9035 56.1716 54.6311 55.4071 55.3944C54.6427 56.1577 53.9136 56.6313 52.8931 57.0283C52.1238 57.3281 50.9652 57.6829 48.8343 57.7797C46.5305 57.8856 45.8385 57.9067 40.0018 57.9067C34.1651 57.9067 33.475 57.8856 31.1718 57.7797ZM30.9909 18.289C28.6641 18.3949 27.0742 18.7636 25.6857 19.3036C24.2478 19.8612 23.0305 20.6093 21.814 21.823C20.5976 23.0368 19.851 24.2553 19.293 25.6924C18.7528 27.081 18.3838 28.669 18.2779 30.9944C18.1702 33.3234 18.1455 34.068 18.1455 39.9999C18.1455 45.9318 18.1702 46.6764 18.2779 49.0054C18.3838 51.3309 18.7528 52.9188 19.293 54.3073C19.851 55.7436 20.5978 56.9635 21.814 58.1767C23.0303 59.39 24.2478 60.137 25.6857 60.6962C27.0769 61.2362 28.6641 61.6049 30.9909 61.7108C33.3225 61.8167 34.0663 61.843 40.0018 61.843C45.9372 61.843 46.6823 61.8184 49.0127 61.7108C51.3396 61.6049 52.9285 61.2362 54.3178 60.6962C55.7549 60.137 56.9731 59.3905 58.1895 58.1767C59.406 56.9629 60.151 55.7436 60.7105 54.3073C61.2508 52.9188 61.6215 51.3307 61.7257 49.0054C61.8317 46.6746 61.8563 45.9318 61.8563 39.9999C61.8563 34.068 61.8317 33.3234 61.7257 30.9944C61.6197 28.6689 61.2508 27.0801 60.7105 25.6924C60.151 24.2562 59.404 23.0387 58.1895 21.823C56.975 20.6073 55.7549 19.8612 54.3196 19.3036C52.9285 18.7636 51.3394 18.3931 49.0144 18.289C46.684 18.1831 45.939 18.1567 40.0035 18.1567C34.0681 18.1567 33.3225 18.1813 30.9909 18.289Z" fill="url(#paint0_radial_467_4750)"/>
<path d="M32.7175 39.9999C32.7175 35.9788 35.9783 32.7182 40.0018 32.7182C44.0253 32.7182 47.2878 35.9788 47.2878 39.9999C47.2878 44.0209 44.0253 47.2815 40.0018 47.2815C35.9783 47.2815 32.7175 44.0209 32.7175 39.9999ZM28.7788 39.9999C28.7788 46.1946 33.8033 51.2161 40.0018 51.2161C46.2002 51.2161 51.2247 46.1946 51.2247 39.9999C51.2247 33.8052 46.2002 28.7837 40.0018 28.7837C33.8033 28.7837 28.7788 33.8052 28.7788 39.9999ZM49.0463 28.3389C49.0461 28.8574 49.1997 29.3642 49.4877 29.7954C49.7757 30.2265 50.1852 30.5627 50.6644 30.7612C51.1435 30.9598 51.6709 31.0119 52.1797 30.911C52.6885 30.8101 53.1559 30.5606 53.5228 30.1942C53.8898 29.8278 54.1398 29.3608 54.2412 28.8524C54.3426 28.344 54.2908 27.8169 54.0925 27.3379C53.8942 26.8588 53.5582 26.4493 53.127 26.1611C52.6958 25.873 52.1888 25.719 51.6701 25.7188H51.669C50.9737 25.7191 50.3069 25.9953 49.8152 26.4865C49.3234 26.9778 49.0469 27.644 49.0463 28.3389ZM31.1718 57.7797C29.0409 57.6827 27.8827 57.328 27.1131 57.0283C26.0926 56.6313 25.3645 56.1584 24.5991 55.3944C23.8336 54.6304 23.3597 53.9035 22.9642 52.8837C22.6642 52.1148 22.3092 50.9569 22.2123 48.8273C22.1064 46.5249 22.0852 45.8332 22.0852 40C22.0852 34.1669 22.1081 33.4772 22.2123 31.1728C22.3094 29.0432 22.667 27.8876 22.9642 27.1164C23.3615 26.0966 23.8346 25.369 24.5991 24.6039C25.3635 23.8389 26.0909 23.3653 27.1131 22.9701C27.8824 22.6702 29.0409 22.3155 31.1718 22.2187C33.4757 22.1128 34.1677 22.0916 40.0018 22.0916C45.8358 22.0916 46.5286 22.1145 48.8343 22.2187C50.9652 22.3156 52.1215 22.673 52.8931 22.9701C53.9136 23.3653 54.6416 23.84 55.4071 24.6039C56.1726 25.3679 56.6447 26.0966 57.042 27.1164C57.342 27.8853 57.697 29.0432 57.7938 31.1728C57.8998 33.4772 57.921 34.1669 57.921 40C57.921 45.8332 57.8998 46.5229 57.7938 48.8273C57.6968 50.9569 57.3401 52.1144 57.042 52.8837C56.6447 53.9035 56.1716 54.6311 55.4071 55.3944C54.6427 56.1577 53.9136 56.6313 52.8931 57.0283C52.1238 57.3281 50.9652 57.6829 48.8343 57.7797C46.5305 57.8856 45.8385 57.9067 40.0018 57.9067C34.1651 57.9067 33.475 57.8856 31.1718 57.7797ZM30.9909 18.289C28.6641 18.3949 27.0742 18.7636 25.6857 19.3036C24.2478 19.8612 23.0305 20.6093 21.814 21.823C20.5976 23.0368 19.851 24.2553 19.293 25.6924C18.7528 27.081 18.3838 28.669 18.2779 30.9944C18.1702 33.3234 18.1455 34.068 18.1455 39.9999C18.1455 45.9318 18.1702 46.6764 18.2779 49.0054C18.3838 51.3309 18.7528 52.9188 19.293 54.3073C19.851 55.7436 20.5978 56.9635 21.814 58.1767C23.0303 59.39 24.2478 60.137 25.6857 60.6962C27.0769 61.2362 28.6641 61.6049 30.9909 61.7108C33.3225 61.8167 34.0663 61.843 40.0018 61.843C45.9372 61.843 46.6823 61.8184 49.0127 61.7108C51.3396 61.6049 52.9285 61.2362 54.3178 60.6962C55.7549 60.137 56.9731 59.3905 58.1895 58.1767C59.406 56.9629 60.151 55.7436 60.7105 54.3073C61.2508 52.9188 61.6215 51.3307 61.7257 49.0054C61.8317 46.6746 61.8563 45.9318 61.8563 39.9999C61.8563 34.068 61.8317 33.3234 61.7257 30.9944C61.6197 28.6689 61.2508 27.0801 60.7105 25.6924C60.151 24.2562 59.404 23.0387 58.1895 21.823C56.975 20.6073 55.7549 19.8612 54.3196 19.3036C52.9285 18.7636 51.3394 18.3931 49.0144 18.289C46.684 18.1831 45.939 18.1567 40.0035 18.1567C34.0681 18.1567 33.3225 18.1813 30.9909 18.289Z" fill="url(#paint1_radial_467_4750)"/>
<defs>
<radialGradient id="paint0_radial_467_4750" cx="0" cy="0" r="1" gradientUnits="userSpaceOnUse" gradientTransform="translate(23.953 62.0494) scale(57.0631 57.0288)">
<stop offset="0.09" stop-color="#FA8F21"/>
<stop offset="0.78" stop-color="#D82D7E"/>
</radialGradient>
<radialGradient id="paint1_radial_467_4750" cx="0" cy="0" r="1" gradientUnits="userSpaceOnUse" gradientTransform="translate(44.6552 64.0066) scale(44.9736 44.9466)">
<stop offset="0.64" stop-color="#8C3AAA" stop-opacity="0"/>
<stop offset="1" stop-color="#8C3AAA"/>
</radialGradient>
</defs>
</svg>
