<svg width="80" height="80" viewBox="0 0 80 80" fill="none" xmlns="http://www.w3.org/2000/svg">
<path d="M18.3486 21.4795C18.3486 19.7512 19.7956 18.3483 21.5793 18.3483H58.8306C60.6149 18.3483 62.0612 19.7512 62.0612 21.4795V58.9301C62.0612 60.6589 60.6149 62.0608 58.8306 62.0608H21.5793C19.7958 62.0608 18.3486 60.6591 18.3486 58.9306V21.479V21.4795Z" fill="#006699"/>
<path d="M31.6318 54.93V35.2505H25.0906V54.93H31.6325H31.6318ZM28.3626 32.5641C30.6432 32.5641 32.063 31.0529 32.063 29.1644C32.0203 27.2328 30.6432 25.7639 28.406 25.7639C26.1672 25.7639 24.7051 27.2328 24.7051 29.1642C24.7051 31.0527 26.1244 32.5639 28.3197 32.5639H28.3621L28.3626 32.5641ZM35.2524 54.93H41.7931V43.9413C41.7931 43.3539 41.8358 42.765 42.0086 42.3454C42.4812 41.1698 43.5575 39.9528 45.3649 39.9528C47.7312 39.9528 48.6783 41.7574 48.6783 44.4032V54.93H55.2188V43.6464C55.2188 37.6019 51.9923 34.7891 47.6888 34.7891C44.1606 34.7891 42.611 36.7611 41.7501 38.1043H41.7936V35.2512H35.2528C35.3382 37.0974 35.2523 54.9307 35.2523 54.9307L35.2524 54.93Z" fill="white"/>
</svg>
