<svg width="45" height="45" viewBox="0 0 45 45" fill="none" xmlns="http://www.w3.org/2000/svg">
<path fill-rule="evenodd" clip-rule="evenodd" d="M31.7616 5.625C34.276 5.625 36.6947 6.61875 38.4741 8.40188C40.2553 10.1813 41.251 12.5813 41.251 15.0938V29.9062C41.251 35.1375 36.9947 39.375 31.7616 39.375H13.2385C8.00535 39.375 3.75098 35.1375 3.75098 29.9062V15.0938C3.75098 9.8625 7.9866 5.625 13.2385 5.625H31.7616ZM34.7447 17.8875L34.8947 17.7375C35.3429 17.1937 35.3429 16.4062 34.8741 15.8625C34.6135 15.5831 34.2554 15.4125 33.8822 15.375C33.4885 15.3544 33.1135 15.4875 32.8304 15.75L24.376 22.5C23.2885 23.4019 21.7304 23.4019 20.626 22.5L12.1885 15.75C11.6054 15.3187 10.7991 15.375 10.3135 15.8812C9.80723 16.3875 9.75098 17.1937 10.1804 17.7562L10.426 18L18.9572 24.6562C20.0072 25.4813 21.2804 25.9312 22.6135 25.9312C23.9429 25.9312 25.2385 25.4813 26.2866 24.6562L34.7447 17.8875Z" fill="#3D2454"/>
</svg>
