<svg width="48" height="48" viewBox="0 0 48 48" fill="none" xmlns="http://www.w3.org/2000/svg">
<g id="Icon">
<g id="Subtract">
<path fill-rule="evenodd" clip-rule="evenodd" d="M12.1748 25.937V29.665C12.1748 31.9531 13.7898 33.9231 16.0334 34.3718L23.2334 35.8118C23.8549 35.9361 24.4947 35.9361 25.1162 35.8118L32.3162 34.3718C34.5598 33.9231 36.1748 31.9531 36.1748 29.665V25.8201L25.2327 29.4675C24.4322 29.7343 23.5667 29.7343 22.7661 29.4675L12.1748 25.937ZM14.6439 19.803C15.334 19.4189 16.1289 19.2001 16.9748 19.2001H31.3748C32.1663 19.2001 32.9131 19.3916 33.5712 19.731L23.9994 22.9216L14.6439 19.803Z" fill="white"/>
<path d="M12.1748 25.937L12.4594 25.0832C12.185 24.9917 11.8833 25.0378 11.6486 25.2069C11.4139 25.3761 11.2748 25.6477 11.2748 25.937H12.1748ZM16.0334 34.3718L15.8569 35.2543H15.8569L16.0334 34.3718ZM23.2334 35.8118L23.41 34.9293H23.41L23.2334 35.8118ZM25.1162 35.8118L24.9397 34.9293H24.9397L25.1162 35.8118ZM32.3162 34.3718L32.1397 33.4893L32.3162 34.3718ZM36.1748 25.8201H37.0748C37.0748 25.5308 36.9357 25.2592 36.701 25.09C36.4664 24.9208 36.1647 24.8748 35.8902 24.9663L36.1748 25.8201ZM25.2327 29.4675L24.9481 28.6137L25.2327 29.4675ZM22.7661 29.4675L23.0507 28.6137L22.7661 29.4675ZM14.6439 19.803L14.2062 19.0166C13.8944 19.1902 13.7146 19.5314 13.7477 19.8867C13.7809 20.2419 14.0208 20.544 14.3592 20.6569L14.6439 19.803ZM33.5712 19.731L33.8558 20.5848C34.1993 20.4703 34.4407 20.1612 34.4686 19.8003C34.4965 19.4394 34.3054 19.0969 33.9836 18.931L33.5712 19.731ZM23.9994 22.9216L23.7148 23.7754C23.8995 23.837 24.0993 23.837 24.284 23.7754L23.9994 22.9216ZM13.0748 29.665V25.937H11.2748V29.665H13.0748ZM16.21 33.4893C14.387 33.1247 13.0748 31.5241 13.0748 29.665H11.2748C11.2748 32.3821 13.1926 34.7215 15.8569 35.2543L16.21 33.4893ZM23.41 34.9293L16.21 33.4893L15.8569 35.2543L23.0569 36.6943L23.41 34.9293ZM24.9397 34.9293C24.4348 35.0303 23.9149 35.0303 23.41 34.9293L23.0569 36.6943C23.7949 36.8419 24.5547 36.8419 25.2927 36.6943L24.9397 34.9293ZM32.1397 33.4893L24.9397 34.9293L25.2927 36.6943L32.4927 35.2543L32.1397 33.4893ZM35.2748 29.665C35.2748 31.5241 33.9626 33.1247 32.1397 33.4893L32.4927 35.2543C35.157 34.7215 37.0748 32.3821 37.0748 29.665H35.2748ZM35.2748 25.8201V29.665H37.0748V25.8201H35.2748ZM35.8902 24.9663L24.9481 28.6137L25.5173 30.3213L36.4594 26.6739L35.8902 24.9663ZM24.9481 28.6137C24.3323 28.8189 23.6665 28.8189 23.0507 28.6137L22.4815 30.3213C23.4668 30.6497 24.532 30.6497 25.5173 30.3213L24.9481 28.6137ZM23.0507 28.6137L12.4594 25.0832L11.8902 26.7909L22.4815 30.3213L23.0507 28.6137ZM15.0815 20.5894C15.6413 20.2779 16.2859 20.1001 16.9748 20.1001V18.3001C15.9718 18.3001 15.0268 18.5599 14.2062 19.0166L15.0815 20.5894ZM16.9748 20.1001H31.3748V18.3001H16.9748V20.1001ZM31.3748 20.1001C32.0195 20.1001 32.6252 20.2558 33.1588 20.5309L33.9836 18.931C33.2009 18.5275 32.3131 18.3001 31.3748 18.3001V20.1001ZM24.284 23.7754L33.8558 20.5848L33.2866 18.8771L23.7148 22.0678L24.284 23.7754ZM14.3592 20.6569L23.7148 23.7754L24.284 22.0678L14.9285 18.9492L14.3592 20.6569Z" fill="white"/>
</g>
<path id="Polygon" d="M23.8107 12.0632C23.9338 12.0222 24.067 12.0222 24.1901 12.0632L43.8928 18.6308C44.4398 18.8131 44.4398 19.5869 43.8928 19.7692L24.1901 26.3368C24.067 26.3778 23.9338 26.3778 23.8107 26.3368L4.10802 19.7692C3.56101 19.5869 3.561 18.8131 4.10802 18.6308L23.8107 12.0632Z" fill="white" stroke="white" stroke-width="1.8" stroke-linecap="round" stroke-linejoin="round"/>
<path id="Vector" d="M23.4 18.6L9.64617 22.5297C7.8431 23.0448 6.6 24.6929 6.6 26.5681V30.3M6 37.2L6.6 30.3M6.6 30.3L7.2 37.2" stroke="white" stroke-width="3" stroke-linecap="round" stroke-linejoin="round"/>
</g>
</svg>
